<?xml version="1.0" encoding="UTF-8"?>
<svg id="Layer_1" xmlns="http://www.w3.org/2000/svg" version="1.1" viewBox="0 0 160.73 161.03">
  <!-- Generator: Adobe Illustrator 29.0.1, SVG Export Plug-In . SVG Version: 2.1.0 Build 192)  -->
  <defs>
    <style>
      .st0 {
        fill: #0c0d0d;
        stroke: #414042;
        stroke-miterlimit: 10;
        stroke-width: .5px;
      }

      .st1 {
        fill: #2ca591;
      }
    </style>
  </defs>
  <circle class="st0" cx="80.2" cy="80.54" r="80.2"/>
  <g id="_x37_uQvuV.tif">
    <g>
      <path class="st1" d="M118.64,128.25c-11.99-3.16-25.74-4.07-37.54-7.47-1.52-.44-2.29-1.27-3.25-2.48-3.29-4.12-7.16-10.46-10.02-15.04-1.78-2.84-5.34-7.99-4.76-11.36.37-2.14,2.39-4.85,2.81-7.1-1.71,1.31-2.49,3.13-4.93,3.25-6.79-.91-13.98-.94-20.73-1.82-2.59-.34-2.43-.72-3.51-2.94-4.33-8.91-7.84-18.25-12.26-27.13-.8-2.18,1.27-2.94,2.77-3.93,6.49-4.26,13.83-8.72,20.53-12.65,1.92-1.12,3.25-2.11,5.58-2.3,4.37-.34,9.24.03,13.61.26,5.05.27,5.22-.78,7.57,4.12,2.12,4.43,3.92,9.05,5.93,13.53,1.11-.48,1.98-.58,3.2-.45,7.04.72,16.03,3.32,23.26,4.67,4.79.89,9.76,1.17,14.37,2.83,4.81,6.43,8.85,13.41,13.42,20,1.15,1.67,1.77,1.42,1.28,3.99-4.63,12.1-8.39,24.54-13.02,36.63-.78,2.03-1.23,4.89-3.59,5.37h-.72ZM64.2,40.18c-4.13.02-8.51-.83-12.55.23l-20.88,12.9,13.2-.28c6.39-4.76,13.74-8.21,20.23-12.84ZM76.62,63.33l2.11-5.55c-2.47-4.86-4.27-10.21-6.68-15.06-.3-.6-1-2.33-1.57-2.5-.95-.28-4.04,1.88-5.06,2.49-6.36,3.78-12.51,7.95-18.97,11.58l-.53.92,14.16,28.61c.52.15.9,0,1.35-.24,2.93-1.48,6.4-5.36,9.44-7.03l4.56-10.6c-.57-.02-.76.52-1.29.73-3.19,1.27-6.16-2.58-3.96-5.39,1.27-1.62,3.66-1.82,5.11-.34.73.75.65,1.72,1.33,2.36ZM43.16,55.72l-14.53.45c3.75,7.66,7.03,15.57,10.78,23.24.25.52.92,2.1,1.32,2.26l15.59,1.71-13.16-27.65ZM105.75,103.19l13.12-38.77-36.76-6.94-15.51,36.05,39.15,9.67ZM119.36,122.05l12.92-38.55-.25-.97-10.88-15.85c-.31,0-2.02,5.13-2.27,5.84-3.7,10.55-6.83,21.3-10.68,31.79l10.62,17.44.54.3ZM105.93,105.88c-12.52-2.78-24.81-6.55-37.42-8.89l12.56,19.31.75.68,34.92,6.5-10.81-17.6Z"/>
      <path class="st1" d="M101.4,46.93c.53-.03.99-.19,1.55-.02,1.16.34,1.22,2.1,0,2.52-.87.29-5.96.95-6.87.89-1.65-.1-1.69-2.21-.37-2.64,1.04-.34,4.47-.67,5.7-.75Z"/>
      <path class="st1" d="M94.7,37.11c.85-.13,1.58.63,1.5,1.49-.11,1.07-3.59,4.12-4.41,5.17-1.05.72-2.43-.53-1.92-1.67.28-.62,4.24-4.9,4.83-4.99Z"/>
      <path class="st1" d="M85.61,32.83c2.51-.22.95,5.08,1.22,6.46-.42,1.18-2.18,1.19-2.53,0s-.43-6.31,1.3-6.46Z"/>
      <path class="st1" d="M95.88,76.3c4.25,3.96-1.16,10.95-6,7.31-5.19-3.89,1.25-11.74,6-7.31Z"/>
      <path class="st1" d="M96.05,87.76c4.03-4,10.43,1.55,7.08,6.24-3.87,5.41-11.89-1.47-7.08-6.24Z"/>
      <path class="st1" d="M86.35,63.15c7.41-1.28,7.7,10.19.18,9.26-4.79-.6-5.08-8.41-.18-9.26Z"/>
      <path class="st1" d="M61.75,67.44c4.55-.79,5.56,5.98,1.56,6.81-4.94,1.03-5.79-6.08-1.56-6.81Z"/>
      <path class="st1" d="M58.63,56.49c3.54,3.54-2.35,8.5-5.17,4.58-2.52-3.5,2.39-7.36,5.17-4.58Z"/>
      <path class="st1" d="M67.48,47.63c4.7-.97,5.75,6.36,1.11,6.85-4.3.45-5.1-6.03-1.11-6.85Z"/>
      <path class="st1" d="M120.25,89.62c3.92-.7,4.28,9.87.41,10.01-3.62.13-3.6-9.44-.41-10.01Z"/>
      <path class="st1" d="M82.04,112.55c1.91-.53,6.45,1.21,7.59,2.82,2.25,3.18-4.4,1.06-5.76.27-.74-.42-3.63-2.59-1.82-3.09Z"/>
      <path class="st1" d="M102.32,110.67c2.13,2.31-1.39,2.12-2.97,1.66-1.36-.4-5.23-2.28-4.84-3.98,1.93-1.15,6.44.84,7.81,2.32Z"/>
      <path class="st1" d="M40.98,66.96c3.94-.57,5.41,7.2.41,6.64-3.25-.36-3.82-6.15-.41-6.64Z"/>
      <path class="st1" d="M55.07,41.43c4.57-.57-.19,3.51-2.74,3.94-4.78.8-.29-3.56,2.74-3.94Z"/>
      <path class="st1" d="M45.07,47.36c.39,2.51-3.59,5.13-5.95,4.75-.59-2.04,4.52-5.59,5.95-4.75Z"/>
    </g>
  </g>
</svg>