<?xml version="1.0" encoding="UTF-8"?>
<svg xmlns="http://www.w3.org/2000/svg" version="1.1" viewBox="0 0 773 84">
  <defs>
    <style>
      .cls-1 {
        fill: #ef534d;
      }

      .cls-2 {
        fill: #f6f7f7;
      }
    </style>
  </defs>
  <!-- Generator: Adobe Illustrator 28.7.2, SVG Export Plug-In . SVG Version: 1.2.0 Build 154)  -->
  <g>
    <g id="Layer_1">
      <g id="L3eK1Y.tif">
        <path class="cls-2" d="M125.51.77c.57,0,1.18.03,1.72.12.64.11.96.84.63,1.4-13.13,21.89-26.17,43.63-39.35,65.61-.35.59-1.19.61-1.58.05-.05-.07-.1-.15-.14-.22-8.04-13.4-16.08-26.81-24.12-40.21-.81-1.34-.98-1.34-1.79.02-1.71,2.87-3.43,5.73-5.15,8.59h0c-.34.57-1.15.59-1.53.05-.09-.13-.18-.26-.26-.39-4.34-7.24-8.67-14.48-13.04-21.7-.26-.44-.88-.93-1.34-.94-3.43-.08-6.87-.04-10.3-.03-.21,0-.42.11-.87.24l26.4,44c.36.6,1.23.6,1.59,0l4.6-7.52c.36-.59,1.22-.59,1.59,0,.65,1.04,1.23,1.96,1.79,2.89,1.3,2.14,2.61,4.28,3.83,6.46.24.43.33,1.22.1,1.61-4.04,6.87-8.14,13.71-12.24,20.55-.06.1-.22.15-.58.37L7.87,2.41c-.3-.5-.08-1.14.46-1.35l.59-.23c.11-.04.22-.06.34-.06h36.73c.26,0,.51.11.68.3.44.47.9.93,1.23,1.47,1.81,2.96,3.58,5.94,5.37,8.92.91,1.51,2.4,1.51,3.3,0,1.17-1.95,2.32-3.9,3.5-5.84.3-.49.61-.98.95-1.5.38-.58,1.23-.56,1.59.03,8.13,13.53,16.14,26.87,24.32,40.49.36.61,1.25.6,1.61,0,6.07-10.14,11.98-20,18.02-30.1.37-.62-.08-1.41-.8-1.41-2.71,0-5.11.03-7.5-.03-.97-.02-1.52.32-2,1.13-2.02,3.44-4.1,6.84-6.16,10.26-.25.41-.55.78-.89,1.25-.3-.32-.41-.47-.55-.67-2.18-3.17-4.04-6.58-5.96-9.91-.23-.4-.11-1.16.09-1.6,1.44-3.27,1.86-4.38,4.1-7.27.96-1.24,2.85-3.89,3.81-5.15.18-.23.45-.37.74-.37,11.36,0,22.71,0,34.07,0Z"/>
      </g>
      <g id="cTCp2T.tif">
        <g>
          <path class="cls-2" d="M361.55,52.37c1.43-4.12,2.88-8.24,4.27-12.38,2.81-8.34,5.61-16.68,8.38-25.03.49-1.47,1.37-2.2,2.96-2.08.83.07,1.67.08,2.5,0,1.91-.21,2.84.67,3.45,2.45,4.14,12.18,8.37,24.33,12.86,37.32.71-1.45,1.25-2.26,1.53-3.16,3.7-11.54,7.33-23.1,11.1-34.62.25-.77,1.36-1.69,2.14-1.76,2.73-.26,5.49-.17,8.24-.23,2.01-.04,2.18.97,1.59,2.59-2.28,6.24-4.52,12.49-6.78,18.74-4.03,11.16-8.09,22.31-12.03,33.51-.58,1.64-1.42,2.2-3.06,2.25-6.87.22-7.01.3-9.51-6.33-3.2-8.46-6.14-17.02-9.2-25.52-.3-.84-.73-1.65-1.37-3.07-1.27,3.7-2.31,6.87-3.45,10-2.82,7.72-5.68,15.43-8.53,23.14-.09.23-.14.52-.31.68-2.25,2.19-5.05.99-7.59,1.01-.96,0-2.47-1.15-2.83-2.11-6.51-17.42-12.88-34.9-19.31-52.35-.68-1.84-.3-2.64,1.79-2.55,2.58.1,5.18-.13,7.74.11.88.08,2.15,1.01,2.42,1.82,3.82,11.33,7.5,22.71,11.23,34.07.38,1.16.83,2.31,1.24,3.46.18.01.36.02.55.04Z"/>
          <path class="cls-2" d="M596.8,41.55c0-8.5.06-17-.03-25.5-.03-2.34.68-3.25,3.15-3.2,9.24.21,18.52-.27,27.72.45,12.28.96,19.4,12.23,15.9,24.75-1.57,5.62-5.29,9.14-10.65,10.94-2.11.71-2.06,1.41-.74,2.88,4.67,5.2,9.3,10.44,13.9,15.7.44.51.62,1.24.92,1.87-.68.16-1.35.39-2.04.47-.66.07-1.33-.01-2-.02-9.08-.04-9.05-.06-14.93-7.11-2.93-3.52-5.93-6.98-9.05-10.33-.74-.8-2.05-1.33-3.16-1.46-1.97-.23-3.99,0-5.99-.07-1.63-.06-2.2.64-2.18,2.23.06,4.75-.08,9.5.07,14.25.06,2.06-.73,2.67-2.6,2.6-1.91-.08-3.83-.09-5.74-.02-1.94.07-2.6-.76-2.58-2.69.07-8.58.03-17.16.03-25.75ZM617.39,40.93v-.03c2.58,0,5.17.11,7.74-.02,4.8-.25,8.07-3.73,8.3-8.64.2-4.25-2.85-8.36-7.23-8.73-5.54-.47-11.14-.36-16.71-.3-.62,0-1.73,1.32-1.75,2.06-.16,4.58-.06,9.16-.07,13.74,0,1.38.62,1.95,1.97,1.94,2.58-.03,5.16,0,7.75,0Z"/>
          <path class="cls-2" d="M545.81,41.29c0-8.33,0-16.66,0-24.99,0-3.35.13-3.48,3.57-3.48,12,0,23.99.06,35.99-.02,2.31-.01,3.26.61,3.26,3.09,0,7.69.09,7.69-7.7,7.69-7.16,0-14.33.06-21.49-.03-2.02-.02-2.88.58-2.76,2.7.14,2.41.12,4.84-.02,7.24-.13,2.23.81,2.88,2.94,2.86,8.08-.09,16.16-.04,24.24-.03,3.39,0,3.39.03,3.41,3.28q.03,6.9-6.95,6.92c-6.91.01-13.83.06-20.74,0-2.15-.02-3.03.73-2.88,2.93.15,2.16.01,4.33.03,6.5.02,3.05.16,3.18,3.31,3.18,8.5,0,17,.05,25.49-.06,2.33-.03,3.42.57,3.15,3.09-.2,1.81-.06,3.66-.06,5.49,0,1.52-.66,2.28-2.26,2.28-12.83-.02-25.66-.02-38.49.02-2,0-2.04-1.24-2.03-2.67,0-8.66,0-17.33,0-25.99h-.01Z"/>
          <path class="cls-2" d="M536.25,19.75c-2.34,2.4-4.16,4.44-6.2,6.24-.42.37-1.84.11-2.48-.33-3.58-2.46-7.39-4.04-11.79-4.28-8.57-.47-15.52,3.68-18.7,11.68-3.06,7.7-2.75,15.22,2.67,21.86,5.78,7.08,19.48,8.21,26.39,2.31.66-.56,1.12-1.65,1.21-2.54.2-1.9.07-3.83.11-5.74.03-1.68-.76-2.4-2.44-2.37-3.08.05-6.17-.1-9.25.02-2.12.08-2.97-.63-3-2.85-.09-6.92-.16-6.92,6.75-6.92,5.17,0,10.33.07,15.5,0,1.73-.03,2.33.54,2.3,2.29-.08,6.75.03,13.5-.12,20.25-.03,1.16-.69,2.58-1.52,3.42-6.88,6.92-15.35,9.25-24.88,8.28-5.97-.61-11.63-2.15-16.38-6.02-5.63-4.59-8.72-10.63-9.5-17.79-.85-7.75-.13-15.21,3.94-22.17,4.75-8.13,11.94-12.41,20.97-13.56,8.83-1.12,17.06.72,24.08,6.6.63.53,1.35.95,2.32,1.63Z"/>
          <path class="cls-2" d="M454.1,12.9c3.96-1.32,5.89,1.09,7.63,5.1,7.13,16.45,14.61,32.75,21.96,49.11,1.04,2.31.77,2.81-1.73,2.86-2.33.05-4.66-.09-6.99,0-1.59.07-2.44-.59-3.02-2.02-.97-2.38-1.97-4.76-3.2-7.01-.42-.76-1.56-1.6-2.38-1.61-8.74-.12-17.48-.11-26.22-.01-.75,0-1.78.78-2.16,1.48-1.19,2.18-2.18,4.48-3.14,6.77-.69,1.65-1.71,2.46-3.6,2.37-2.32-.12-4.66-.02-6.99.07-1.72.07-2.34-.33-1.52-2.15,3.59-7.94,7.1-15.92,10.65-23.88,4.33-9.7,8.64-19.42,13.09-29.07.42-.9,1.7-1.69,2.73-1.95,1.33-.33,2.81-.08,4.89-.08ZM453.72,26.29l-.89.13c-3.19,7.37-6.39,14.74-9.72,22.43h20.48c-3.39-7.77-6.63-15.17-9.86-22.56Z"/>
          <path class="cls-2" d="M771.07,40.82c-.77,11.49-4.18,21.02-14.32,26.47-13.76,7.4-34.9,4.25-41.46-14.44-4.16-11.87-2.75-23.27,6.03-32.84,5.96-6.5,13.92-8.39,22.51-7.98,4.62.22,9.05,1.14,13.13,3.47,7.42,4.25,11.65,10.69,13.15,19.01.41,2.28.7,4.59.96,6.3ZM766.21,41.74c.65-13.78-8.88-25.27-23.21-25.45-7.8-.1-14.73,1.97-19.68,8.3-5.55,7.11-6.52,15.22-4.46,23.87,3.72,15.67,19.74,21.76,33.11,16.11,9.97-4.22,13.95-12.45,14.24-22.83Z"/>
          <path class="cls-2" d="M330.87,65.38c.61,4.54.53,4.64-3.37,4.64-11.24-.01-22.49-.08-33.73-.02-2.48.01-3.29-.82-3.28-3.34.1-16.83.11-33.65.02-50.48-.01-2.53.78-3.36,3.27-3.34,11.24.08,22.49.03,33.74.05,1.2,0,2.57-.21,2.65,1.75.07,1.82-.32,2.71-2.44,2.69-9.33-.1-18.66-.03-27.99-.05-5.15-.01-4.38-.12-4.42,4.45-.03,4.66-.01,9.33,0,13.99,0,3.36,0,3.34,3.27,3.34,9-.01,17.99-.04,26.99.03.95,0,2.31.34,2.76,1.01,1.07,1.59-.09,2.99-2.35,3-9.16.02-18.33.1-27.49-.04-2.56-.04-3.31.76-3.22,3.27.18,5.33.17,10.66.02,15.99-.06,2.36.64,3.14,3.07,3.11,9.83-.13,19.66-.06,29.49-.06.98,0,1.96,0,3.03,0Z"/>
          <path class="cls-2" d="M257.25,63.71c.6-.81,1.14-1.31,1.4-1.93,4.45-10.91,8.87-21.84,13.28-32.77,1.8-4.46,3.55-8.95,5.37-13.41,1.22-2.98,2.19-3.34,5.88-2.1-1.45,3.59-2.88,7.17-4.34,10.73-5.89,14.36-11.82,28.71-17.64,43.1-.73,1.8-1.62,2.58-3.62,2.65-2.1.08-2.97-.92-3.65-2.61-5.51-13.53-11.04-27.05-16.57-40.57-1.48-3.61-3.05-7.19-4.42-10.84-.33-.87-.16-2.83.03-2.86,1.57-.28,3.43-.8,4.29,1.29,1.72,4.14,3.4,8.3,5.09,12.46,4.92,12.15,9.82,24.3,14.9,36.85Z"/>
          <path class="cls-2" d="M174.32,41.33c0-8.49.04-16.98-.03-25.47-.02-1.91.42-3.03,2.56-3.01,2.24.02,2.2,1.49,2.2,3.07-.01,15.31,0,30.63,0,45.94q0,3.75,3.86,3.74c8.49-.01,16.98.02,25.47-.06,1.92-.02,2.77.58,2.65,2.57-.09,1.36-.6,1.91-1.99,1.9-10.82-.04-21.64-.05-32.45-.01-2.02,0-2.27-1.08-2.27-2.71.04-8.65.02-17.31.02-25.96Z"/>
          <path class="cls-2" d="M701.77,41.22c0,8.57-.03,17.13.02,25.7,0,1.74,0,3.11-2.35,3.12-2.28,0-2.27-1.4-2.27-2.99,0-17.13,0-34.27-.03-51.4,0-1.75.37-2.82,2.47-2.85,2.12-.03,2.19,1.16,2.18,2.72-.03,8.57-.01,17.13-.01,25.7Z"/>
          <path class="cls-2" d="M219.2,41.73c0-8.66.03-17.32-.02-25.98-.01-1.82.51-2.85,2.5-2.85,1.57,0,2.27.62,2.25,2.23-.04,4.25,0,8.49,0,12.74,0,13.07-.02,26.15.04,39.22,0,1.79-.38,2.91-2.41,2.93-1.76,0-2.47-.68-2.46-2.56.08-8.58.04-17.15.04-25.73.01,0,.03,0,.04,0Z"/>
          <path class="cls-1" d="M680.94,60.12c-.51,5.74-3.37,10.2-10.63,10.45-7.41.25-12.75-4.56-12.35-11.46.39-6.86,4.2-10.6,11.2-10.78,7.45-.19,11.75,3.8,11.78,11.79Z"/>
        </g>
      </g>
    </g>
  </g>
</svg>