<?xml version="1.0" encoding="UTF-8"?>
<svg id="Layer_1" xmlns="http://www.w3.org/2000/svg" viewBox="0 0 596.78 554.05">
  <defs>
    <style>
      .cls-1 {
        fill: #ef534d;
      }

      .cls-2 {
        fill: #f6f7f7;
      }
    </style>
  </defs>
  <g id="L3eK1Y.tif">
    <path class="cls-2" d="M543.76,0c2.42,0,5.04.12,7.34.52,2.73.48,4.1,3.58,2.67,5.96-55.87,93.15-111.38,185.73-167.47,279.25-1.49,2.49-5.08,2.59-6.71.19-.21-.31-.41-.62-.6-.93-34.24-57.04-68.46-114.09-102.67-171.15-3.43-5.72-4.16-5.72-7.64.1-7.28,12.2-14.59,24.4-21.92,36.57h0c-1.46,2.41-4.9,2.52-6.53.23-.39-.55-.76-1.09-1.09-1.65-18.49-30.8-36.9-61.64-55.5-92.37-1.12-1.86-3.73-3.94-5.7-3.99-14.61-.33-29.24-.19-43.86-.14-.89,0-1.78.47-3.71,1.02l112.38,187.26c1.53,2.56,5.23,2.57,6.79.03l19.58-32.02c1.54-2.51,5.19-2.53,6.75-.03,2.76,4.41,5.22,8.32,7.62,12.28,5.52,9.12,11.11,18.2,16.31,27.5,1.03,1.85,1.4,5.19.41,6.87-17.2,29.25-34.66,58.36-52.1,87.47-.26.44-.95.63-2.48,1.59L43.01,6.99c-1.27-2.11-.33-4.86,1.97-5.74l2.53-.98C47.97.09,48.45,0,48.94,0h156.35c1.1,0,2.16.45,2.91,1.27,1.86,2.02,3.83,3.96,5.24,6.26,7.71,12.6,15.25,25.3,22.84,37.97,3.85,6.43,10.2,6.43,14.06,0,4.96-8.28,9.89-16.58,14.89-24.84,1.27-2.1,2.59-4.16,4.04-6.4,1.6-2.47,5.23-2.4,6.75.12,34.59,57.59,68.69,114.39,103.49,172.34,1.55,2.58,5.3,2.57,6.85,0,25.85-43.17,50.98-85.13,76.71-128.11,1.58-2.64-.34-6-3.41-5.99-11.55.03-21.75.12-31.94-.11-4.13-.09-6.48,1.36-8.52,4.83-8.61,14.63-17.43,29.13-26.22,43.66-1.04,1.73-2.34,3.3-3.79,5.33-1.28-1.38-1.75-1.99-2.33-2.83-9.27-13.51-17.2-27.99-25.36-42.2-.97-1.69-.47-4.92.38-6.83,6.14-13.9,7.92-18.63,17.47-30.95,4.1-5.29,12.14-16.57,16.22-21.93.75-.99,1.92-1.58,3.17-1.58,48.34,0,96.68,0,145.02,0Z"/>
  </g>
  <g id="cTCp2T.tif">
    <g>
      <path class="cls-2" d="M187.26,535.14c1.43-4.12,2.88-8.24,4.27-12.38,2.81-8.34,5.61-16.68,8.38-25.03.49-1.47,1.37-2.2,2.96-2.08.83.07,1.67.08,2.5,0,1.91-.21,2.84.67,3.45,2.45,4.14,12.18,8.37,24.33,12.86,37.32.71-1.45,1.25-2.26,1.53-3.16,3.7-11.54,7.33-23.1,11.1-34.62.25-.77,1.36-1.69,2.14-1.76,2.73-.26,5.49-.17,8.24-.23,2.01-.04,2.18.97,1.59,2.59-2.28,6.24-4.52,12.49-6.78,18.74-4.03,11.16-8.09,22.31-12.03,33.51-.58,1.64-1.42,2.2-3.06,2.25-6.87.22-7.01.3-9.51-6.33-3.2-8.46-6.14-17.02-9.2-25.52-.3-.84-.73-1.65-1.37-3.07-1.27,3.7-2.31,6.87-3.45,10-2.82,7.72-5.68,15.43-8.53,23.14-.09.23-.14.52-.31.68-2.25,2.19-5.05.99-7.59,1.01-.96,0-2.47-1.15-2.83-2.11-6.51-17.42-12.88-34.9-19.31-52.35-.68-1.84-.3-2.64,1.79-2.55,2.58.1,5.18-.13,7.74.11.88.08,2.15,1.01,2.42,1.82,3.82,11.33,7.5,22.71,11.23,34.07.38,1.16.83,2.31,1.24,3.46.18.01.36.02.55.04Z"/>
      <path class="cls-2" d="M422.51,524.32c0-8.5.06-17-.03-25.5-.03-2.34.68-3.25,3.15-3.2,9.24.21,18.52-.27,27.72.45,12.28.96,19.4,12.23,15.9,24.75-1.57,5.62-5.29,9.14-10.65,10.94-2.11.71-2.06,1.41-.74,2.88,4.67,5.2,9.3,10.44,13.9,15.7.44.51.62,1.24.92,1.87-.68.16-1.35.39-2.04.47-.66.07-1.33-.01-2-.02-9.08-.04-9.05-.06-14.93-7.11-2.93-3.52-5.93-6.98-9.05-10.33-.74-.8-2.05-1.33-3.16-1.46-1.97-.23-3.99,0-5.99-.07-1.63-.06-2.2.64-2.18,2.23.06,4.75-.08,9.5.07,14.25.06,2.06-.73,2.67-2.6,2.6-1.91-.08-3.83-.09-5.74-.02-1.94.07-2.6-.76-2.58-2.69.07-8.58.03-17.16.03-25.75ZM443.1,523.7v-.03c2.58,0,5.17.11,7.74-.02,4.8-.25,8.07-3.73,8.3-8.64.2-4.25-2.85-8.36-7.23-8.73-5.54-.47-11.14-.36-16.71-.3-.62,0-1.73,1.32-1.75,2.06-.16,4.58-.06,9.16-.07,13.74,0,1.38.62,1.95,1.97,1.94,2.58-.03,5.16,0,7.75,0Z"/>
      <path class="cls-2" d="M371.52,524.06c0-8.33,0-16.66,0-24.99,0-3.35.13-3.48,3.57-3.48,12,0,23.99.06,35.99-.02,2.31-.01,3.26.61,3.26,3.09,0,7.69.09,7.69-7.7,7.69-7.16,0-14.33.06-21.49-.03-2.02-.02-2.88.58-2.76,2.7.14,2.41.12,4.84-.02,7.24-.13,2.23.81,2.88,2.94,2.86,8.08-.09,16.16-.04,24.24-.03,3.39,0,3.39.03,3.41,3.28q.03,6.9-6.95,6.92c-6.91.01-13.83.06-20.74,0-2.15-.02-3.03.73-2.88,2.93.15,2.16.01,4.33.03,6.5.02,3.05.16,3.18,3.31,3.18,8.5,0,17,.05,25.49-.06,2.33-.03,3.42.57,3.15,3.09-.2,1.81-.06,3.66-.06,5.49,0,1.52-.66,2.28-2.26,2.28-12.83-.02-25.66-.02-38.49.02-2,0-2.04-1.24-2.03-2.67,0-8.66,0-17.33,0-25.99h-.01Z"/>
      <path class="cls-2" d="M361.96,502.52c-2.34,2.4-4.16,4.44-6.2,6.24-.42.37-1.84.11-2.48-.33-3.58-2.46-7.39-4.04-11.79-4.28-8.57-.47-15.52,3.68-18.7,11.68-3.06,7.7-2.75,15.22,2.67,21.86,5.78,7.08,19.48,8.21,26.39,2.31.66-.56,1.12-1.65,1.21-2.54.2-1.9.07-3.83.11-5.74.03-1.68-.76-2.4-2.44-2.37-3.08.05-6.17-.1-9.25.02-2.12.08-2.97-.63-3-2.85-.09-6.92-.16-6.92,6.75-6.92,5.17,0,10.33.07,15.5,0,1.73-.03,2.33.54,2.3,2.29-.08,6.75.03,13.5-.12,20.25-.03,1.16-.69,2.58-1.52,3.42-6.88,6.92-15.35,9.25-24.88,8.28-5.97-.61-11.63-2.15-16.38-6.02-5.63-4.59-8.72-10.63-9.5-17.79-.85-7.75-.13-15.21,3.94-22.17,4.75-8.13,11.94-12.41,20.97-13.56,8.83-1.12,17.06.72,24.08,6.6.63.53,1.35.95,2.32,1.63Z"/>
      <path class="cls-2" d="M279.81,495.66c3.96-1.32,5.89,1.09,7.63,5.1,7.13,16.45,14.61,32.75,21.96,49.11,1.04,2.31.77,2.81-1.73,2.86-2.33.05-4.66-.09-6.99,0-1.59.07-2.44-.59-3.02-2.02-.97-2.38-1.97-4.76-3.2-7.01-.42-.76-1.56-1.6-2.38-1.61-8.74-.12-17.48-.11-26.22-.01-.75,0-1.78.78-2.16,1.48-1.19,2.18-2.18,4.48-3.14,6.77-.69,1.65-1.71,2.46-3.6,2.37-2.32-.12-4.66-.02-6.99.07-1.72.07-2.34-.33-1.52-2.15,3.59-7.94,7.1-15.92,10.65-23.88,4.33-9.7,8.64-19.42,13.09-29.07.42-.9,1.7-1.69,2.73-1.95,1.33-.33,2.81-.08,4.89-.08ZM279.43,509.05l-.89.13c-3.19,7.37-6.39,14.74-9.72,22.43h20.48c-3.39-7.77-6.63-15.17-9.86-22.56Z"/>
      <path class="cls-2" d="M596.78,523.59c-.77,11.49-4.18,21.02-14.32,26.47-13.76,7.4-34.9,4.25-41.46-14.44-4.16-11.87-2.75-23.27,6.03-32.84,5.96-6.5,13.92-8.39,22.51-7.98,4.62.22,9.05,1.14,13.13,3.47,7.42,4.25,11.65,10.69,13.15,19.01.41,2.28.7,4.59.96,6.3ZM591.92,524.5c.65-13.78-8.88-25.27-23.21-25.45-7.8-.1-14.73,1.97-19.68,8.3-5.55,7.11-6.52,15.22-4.46,23.87,3.72,15.67,19.74,21.76,33.11,16.11,9.97-4.22,13.95-12.45,14.24-22.83Z"/>
      <path class="cls-2" d="M156.58,548.15c.61,4.54.53,4.64-3.37,4.64-11.24-.01-22.49-.08-33.73-.02-2.48.01-3.29-.82-3.28-3.34.1-16.83.11-33.65.02-50.48-.01-2.53.78-3.36,3.27-3.34,11.24.08,22.49.03,33.74.05,1.2,0,2.57-.21,2.65,1.75.07,1.82-.32,2.71-2.44,2.69-9.33-.1-18.66-.03-27.99-.05-5.15-.01-4.38-.12-4.42,4.45-.03,4.66-.01,9.33,0,13.99,0,3.36,0,3.34,3.27,3.34,9-.01,17.99-.04,26.99.03.95,0,2.31.34,2.76,1.01,1.07,1.59-.09,2.99-2.35,3-9.16.02-18.33.1-27.49-.04-2.56-.04-3.31.76-3.22,3.27.18,5.33.17,10.66.02,15.99-.06,2.36.64,3.14,3.07,3.11,9.83-.13,19.66-.06,29.49-.06.98,0,1.96,0,3.03,0Z"/>
      <path class="cls-2" d="M82.96,546.48c.6-.81,1.14-1.31,1.4-1.93,4.45-10.91,8.87-21.84,13.28-32.77,1.8-4.46,3.55-8.95,5.37-13.41,1.22-2.98,2.19-3.34,5.88-2.1-1.45,3.59-2.88,7.17-4.34,10.73-5.89,14.36-11.82,28.71-17.64,43.1-.73,1.8-1.62,2.58-3.62,2.65-2.1.08-2.97-.92-3.65-2.61-5.51-13.53-11.04-27.05-16.57-40.57-1.48-3.61-3.05-7.19-4.42-10.84-.33-.87-.16-2.83.03-2.86,1.57-.28,3.43-.8,4.29,1.29,1.72,4.14,3.4,8.3,5.09,12.46,4.92,12.15,9.82,24.3,14.9,36.85Z"/>
      <path class="cls-2" d="M.03,524.09c0-8.49.04-16.98-.03-25.47-.02-1.91.42-3.03,2.56-3.01,2.24.02,2.2,1.49,2.2,3.07-.01,15.31,0,30.63,0,45.94q0,3.75,3.86,3.74c8.49-.01,16.98.02,25.47-.06,1.92-.02,2.77.58,2.65,2.57-.09,1.36-.6,1.91-1.99,1.9-10.82-.04-21.64-.05-32.45-.01-2.02,0-2.27-1.08-2.27-2.71.04-8.65.02-17.31.02-25.96Z"/>
      <path class="cls-2" d="M527.48,523.99c0,8.57-.03,17.13.02,25.7,0,1.74,0,3.11-2.35,3.12-2.28,0-2.27-1.4-2.27-2.99,0-17.13,0-34.27-.03-51.4,0-1.75.37-2.82,2.47-2.85,2.12-.03,2.19,1.16,2.18,2.72-.03,8.57-.01,17.13-.01,25.7Z"/>
      <path class="cls-2" d="M44.91,524.5c0-8.66.03-17.32-.02-25.98-.01-1.82.51-2.85,2.5-2.85,1.57,0,2.27.62,2.25,2.23-.04,4.25,0,8.49,0,12.74,0,13.07-.02,26.15.04,39.22,0,1.79-.38,2.91-2.41,2.93-1.76,0-2.47-.68-2.46-2.56.08-8.58.04-17.15.04-25.73.01,0,.03,0,.04,0Z"/>
      <path class="cls-1" d="M506.65,542.89c-.51,5.74-3.37,10.2-10.63,10.45-7.41.25-12.75-4.56-12.35-11.46.39-6.86,4.2-10.6,11.2-10.78,7.45-.19,11.75,3.8,11.78,11.79Z"/>
    </g>
  </g>
</svg>