<?xml version="1.0" encoding="UTF-8"?>
<svg id="Layer_1" xmlns="http://www.w3.org/2000/svg" version="1.1" viewBox="0 0 168.35 188.73">
  <!-- Generator: Adobe Illustrator 29.0.1, SVG Export Plug-In . SVG Version: 2.1.0 Build 192)  -->
  <defs>
    <style>
      .st0 {
        fill: #29a690;
      }
    </style>
  </defs>
  <g id="Yt6ceW.tif">
    <path class="st0" d="M85.61,0l75.44,21.06c3.25,1.21,4.38,2.6,5.02,6.01,1.61,8.56,1.77,20.19,1.88,29.01,0,.62-.24,1.63.37,2.02-.07,3.42.1,6.88,0,10.3-.67,23.15-3.64,50.98-16.39,70.94-13.09,20.49-35.95,38.13-58.77,46.37-8.72,3.15-9.31,3.15-18.02,0-22.32-8.06-44.12-24.76-57.45-44.39C-.55,114.48-1.54,69.51,1.07,38.06c.26-3.19.71-11.04,1.88-13.57.86-1.87,2.43-2.74,4.29-3.43L82.67,0h2.94ZM121.91,53.04c-1.15.07-2.71.81-3.59,1.56l-41.05,40.97-1.05-.31-21.3-21.35c-2.2-1.54-4.5-1.43-6.78-.15-1.26.71-7.21,6.77-8.12,8.06-1.8,2.57-1.25,5.19.55,7.55l32.72,32.72c1.87,1.34,4.39,1.47,6.44.55l53.97-53.75c1.24-1.96,1.1-4.57.05-6.55-.86-1.62-7.55-8.22-9.18-8.83-.62-.23-2.01-.5-2.67-.46Z"/>
  </g>
</svg>